<svg width="20" height="20" viewBox="0 0 20 20" fill="none" xmlns="http://www.w3.org/2000/svg">
<path d="M7.1 8.1V6.25V6.23892L7.10062 6.22785C7.16462 5.07356 7.68289 3.99153 8.54219 3.21816C9.39895 2.44707 10.5253 2.04534 11.6764 2.1H13.75C13.8573 2.1 13.9634 2.12112 14.0625 2.16216C14.1616 2.20321 14.2516 2.26336 14.3275 2.33919C14.4033 2.41503 14.4635 2.50506 14.5045 2.60414C14.5455 2.70322 14.5667 2.80942 14.5667 2.91667V5.08333C14.5667 5.29992 14.4806 5.50765 14.3275 5.6608C14.1743 5.81396 13.9666 5.9 13.75 5.9H11.6667H11.6647V5.89999C11.5569 5.89945 11.4527 5.93911 11.3726 6.01123C11.2967 6.07959 11.2474 6.17246 11.2333 6.2733V8.1H13.625H13.6272C13.7522 8.10071 13.8753 8.13007 13.9872 8.18585C14.099 8.24163 14.1965 8.32232 14.2723 8.42172C14.348 8.52112 14.3999 8.63658 14.424 8.7592C14.4481 8.88182 14.4437 9.00834 14.4112 9.129L14.4105 9.13175L14.4105 9.13175L13.8113 11.2956C13.8111 11.2962 13.8109 11.2968 13.8108 11.2974C13.7634 11.472 13.6593 11.626 13.5148 11.7351C13.3707 11.8439 13.1947 11.9019 13.0143 11.9M7.1 8.1L11.2333 11.9M7.1 8.1H5.41667C5.20007 8.1 4.99235 8.18604 4.8392 8.3392C4.68604 8.49235 4.6 8.70007 4.6 8.91667V11.0833C4.6 11.2999 4.68604 11.5076 4.8392 11.6608C4.99235 11.814 5.20008 11.9 5.41667 11.9H7.1M7.1 8.1V11.9M13.0143 11.9C13.0131 11.9 13.012 11.9 13.0109 11.9L13.0167 11.5V11.9H13.0143ZM13.0143 11.9H11.2333M11.2333 11.9V17.0833C11.2333 17.1906 11.2122 17.2968 11.1712 17.3959C11.1301 17.4949 11.07 17.585 10.9941 17.6608C10.9183 17.7366 10.8283 17.7968 10.7292 17.8378C10.6301 17.8789 10.5239 17.9 10.4167 17.9H7.91667C7.70007 17.9 7.49235 17.814 7.3392 17.6608C7.18604 17.5076 7.1 17.2999 7.1 17.0833V11.9M11.2333 11.9H7.1" stroke="black" stroke-width="0.8"/>
</svg>
