<svg width="14" height="14" viewBox="0 0 14 14" fill="none" xmlns="http://www.w3.org/2000/svg">
<path d="M6.29763 2.625C6.49677 2.62498 6.68996 2.69289 6.84528 2.81751C7.00061 2.94213 7.10878 3.11601 7.15192 3.31042L7.19422 3.5H10.7913C11.0234 3.5 11.246 3.59219 11.4101 3.75628C11.5742 3.92038 11.6663 4.14294 11.6663 4.375V10.5C11.6663 10.7321 11.5742 10.9546 11.4101 11.1187C11.246 11.2828 11.0234 11.375 10.7913 11.375H3.20801C2.97594 11.375 2.75338 11.2828 2.58929 11.1187C2.4252 10.9546 2.33301 10.7321 2.33301 10.5V3.5C2.33301 3.26794 2.4252 3.04538 2.58929 2.88128C2.75338 2.71719 2.97594 2.625 3.20801 2.625H6.29763ZM6.29763 3.5H3.20801V10.5H10.7913V5.83333H6.81651L6.29763 3.5ZM10.208 8.75V9.625H3.79134V8.75H10.208ZM10.7913 4.375H7.38847L7.51826 4.95833H10.7913V4.375Z" fill="black" fill-opacity="0.6"/>
</svg>
