<svg width="20" height="20" viewBox="0 0 20 20" fill="none" xmlns="http://www.w3.org/2000/svg">
<g clip-path="url(#clip0)">
<path d="M16.3984 15.1333L19.7362 18.4717C19.8199 18.5544 19.8864 18.6529 19.9318 18.7616C19.9772 18.8702 20.0006 18.9867 20.0006 19.1044C20.0006 19.2222 19.9772 19.3387 19.9318 19.4473C19.8864 19.556 19.8199 19.6545 19.7362 19.7372C19.5681 19.9047 19.3407 19.9991 19.1034 20C18.8661 19.9991 18.6387 19.9047 18.4706 19.7372L15.134 16.4C13.3587 17.861 11.103 18.6087 8.80656 18.4974C6.5101 18.386 4.33735 17.4237 2.71173 15.7978C1.41776 14.5036 0.536559 12.8548 0.179529 11.0599C-0.177501 9.26493 0.00567277 7.40443 0.705892 5.71358C1.40611 4.02273 2.59193 2.57746 4.11345 1.56047C5.63496 0.543476 7.42385 0.000436048 9.25395 0C14.364 0 18.5062 4.14278 18.5062 9.25389C18.5062 11.4456 17.7328 13.5106 16.3978 15.1339L16.3984 15.1333ZM9.25395 1.79167C5.13506 1.79833 1.7984 5.13556 1.79173 9.25444C1.79173 13.3756 5.13284 16.7172 9.25395 16.7172C13.3751 16.7172 16.7156 13.3756 16.7156 9.25444C16.7156 5.13278 13.3751 1.79167 9.25395 1.79167Z" fill="black"/>
</g>
<defs>
<clipPath id="clip0">
<rect width="20" height="20" fill="white"/>
</clipPath>
</defs>
</svg>
