<svg width="20" height="20" viewBox="0 0 20 20" fill="none" xmlns="http://www.w3.org/2000/svg">
<path d="M5.23006 13.62V14.02H5.63006H7.41006H7.81006H7.82006V13.62H8.15018L8.15018 13.6202L8.14014 14.03H8.55006H10.7301H11.1301V13.63V9.99C11.1301 9.88637 11.124 9.8063 11.1192 9.74716C11.1186 9.74073 11.1182 9.73488 11.1177 9.72949C11.1171 9.72213 11.1166 9.71564 11.1161 9.70973C11.1182 9.70757 11.1205 9.70527 11.1229 9.70284C11.2125 9.61322 11.2547 9.58237 11.2864 9.56652C11.3093 9.55507 11.3493 9.54 11.4501 9.54C11.5657 9.54 11.6888 9.5606 11.7673 9.59365C11.7683 9.59406 11.7693 9.59447 11.7702 9.59487C11.771 9.82302 11.7757 9.99745 11.7802 10.1599L11.7809 10.1844C11.7857 10.3542 11.7901 10.5109 11.7901 10.71V13.62V14.02H12.1901H14.3701V13.62H14.7701V10.23C14.7701 9.35477 14.553 8.62872 14.069 8.08425C13.5519 7.50252 12.8726 7.4 12.1901 7.4C11.8469 7.4 11.5159 7.42058 11.2057 7.5603C11.1801 7.57187 11.1549 7.5841 11.1301 7.597V7.4H10.7301H8.55006H8.21006H8.11588H7.81006H7.17206C7.4056 7.33501 7.61831 7.21502 7.79631 7.02942C8.08447 6.73948 8.22176 6.37429 8.21005 5.96354C8.2085 5.55271 8.05887 5.20038 7.80667 4.92163L7.80677 4.92154L7.79971 4.91414C7.51287 4.61295 7.14191 4.48 6.73006 4.48C6.31583 4.48 5.93375 4.60824 5.64378 4.91061C5.36104 5.19522 5.23006 5.56075 5.23006 5.97C5.23006 6.37492 5.36438 6.73603 5.6404 7.02586C5.8169 7.21118 6.02231 7.33371 6.25222 7.4H5.63006H5.23006V7.8V13.62ZM8.25966 9.1515L8.21006 11.176V8.54731L8.25966 9.1515ZM0.460059 10C0.460059 4.73091 4.73097 0.459998 10.0001 0.459998C15.2691 0.459998 19.5401 4.73091 19.5401 10C19.5401 15.2691 15.2691 19.54 10.0001 19.54C4.73097 19.54 0.460059 15.2691 0.460059 10Z" stroke="black" stroke-width="0.8"/>
<rect x="14.3701" y="13.62" width="0.8" height="0.8" fill="black"/>
</svg>
