<svg width="204" height="48" viewBox="0 0 204 48" fill="none" xmlns="http://www.w3.org/2000/svg">
<path d="M7.8125 35.8516H13.3789C15.3451 35.8516 16.9076 35.2331 18.0664 33.9961C18.9128 33.0977 19.3359 31.457 19.3359 29.0742C19.3359 27.1471 18.8867 25.6497 17.9883 24.582C16.9857 23.3841 15.4492 22.7852 13.3789 22.7852H7.8125V35.8516ZM7.8125 20.6367H13.3789C14.681 20.6367 15.7292 20.2135 16.5234 19.3672C17.2266 18.612 17.5781 17.388 17.5781 15.6953C17.5781 13.7422 17.1549 12.3945 16.3086 11.6523C15.5534 10.9883 14.5768 10.6562 13.3789 10.6562H7.8125V20.6367ZM3.90625 38V9.48438L5.97656 8.50781H13.3789C15.5794 8.50781 17.4089 9.10677 18.8672 10.3047C20.599 11.7109 21.4648 13.5143 21.4648 15.7148C21.4648 17.9544 20.4753 19.8164 18.4961 21.3008C19.1341 21.5742 19.7656 21.9844 20.3906 22.5312C22.2917 24.263 23.2422 26.4115 23.2422 28.9766C23.2422 31.5547 22.4089 33.6706 20.7422 35.3242C18.9583 37.1081 16.5039 38 13.3789 38H3.90625ZM45.8984 29.3477V30.5781C45.8984 32.7266 45.0911 34.5951 43.4766 36.1836C41.9661 37.6549 40.0716 38.3906 37.793 38.3906C35.5404 38.3906 33.6458 37.6549 32.1094 36.1836C30.4948 34.6211 29.6875 32.7526 29.6875 30.5781V23.9375C29.6875 21.776 30.4948 19.9076 32.1094 18.332C33.6198 16.8607 35.5143 16.125 37.793 16.125C40.0195 16.125 41.9141 16.8607 43.4766 18.332C45.0911 19.8555 45.8984 21.5352 45.8984 23.3711L33.7109 33.2148C33.8932 34.0612 34.2578 34.7188 34.8047 35.1875C35.625 35.8906 36.6211 36.2422 37.793 36.2422C38.9648 36.2422 39.9544 35.8906 40.7617 35.1875C41.582 34.4844 41.9922 33.1237 41.9922 31.1055L45.7031 29.3477H45.8984ZM33.5938 30.207L41.9922 23.3906V22.6094C41.9922 21.125 41.5885 20.0312 40.7812 19.3281C39.9609 18.625 38.9648 18.2734 37.793 18.2734C36.6341 18.2734 35.638 18.625 34.8047 19.3281C33.9974 20.0052 33.5938 21.099 33.5938 22.6094V30.207ZM66.6016 37.0234L62.8906 38.7812H62.6953V36.7305C61.6536 37.8372 60.2539 38.3906 58.4961 38.3906C56.0612 38.3906 54.1667 37.6549 52.8125 36.1836C51.4583 34.7122 50.7812 32.974 50.7812 30.9688C50.7812 28.8854 51.5169 27.1146 52.9883 25.6562C54.4076 24.25 56.2435 23.5469 58.4961 23.5469C60.0977 23.5469 61.4974 24.1003 62.6953 25.207C62.6953 22.9023 62.2917 21.1706 61.4844 20.0117C60.6771 18.8529 59.681 18.2734 58.4961 18.2734H53.75V18.0781L54.668 16.125H58.4961C60.7747 16.125 62.6693 16.8607 64.1797 18.332C65.7943 19.9076 66.6016 21.776 66.6016 23.9375V37.0234ZM54.6094 30.9688C54.6094 33 54.9609 34.3932 55.6641 35.1484C56.3411 35.8776 57.2917 36.2422 58.5156 36.2422C59.8177 36.2422 60.8073 35.8711 61.4844 35.1289C62.2266 34.3216 62.5977 32.9023 62.5977 30.8711C62.5977 28.9701 62.2005 27.6159 61.4062 26.8086C60.625 26.0664 59.6549 25.6953 58.4961 25.6953C57.2852 25.6953 56.3346 26.0794 55.6445 26.8477C54.9544 27.6159 54.6094 28.9896 54.6094 30.9688ZM75.0391 38.7812V18.6641H70.0195V18.4688L70.9375 16.5156H75.0391V9.48438L78.75 7.72656H78.9453V16.5156H83.9648V16.7109L83.0469 18.6641H78.9453V37.0234L75.2344 38.7812H75.0391ZM102.227 37.0234L98.5156 38.7812H98.3203V36.7305C97.2786 37.8372 95.8789 38.3906 94.1211 38.3906C91.6862 38.3906 89.7917 37.6549 88.4375 36.1836C87.0833 34.7122 86.4062 32.974 86.4062 30.9688C86.4062 28.8854 87.1419 27.1146 88.6133 25.6562C90.0326 24.25 91.8685 23.5469 94.1211 23.5469C95.7227 23.5469 97.1224 24.1003 98.3203 25.207C98.3203 22.9023 97.9167 21.1706 97.1094 20.0117C96.3021 18.8529 95.306 18.2734 94.1211 18.2734H89.375V18.0781L90.293 16.125H94.1211C96.3997 16.125 98.2943 16.8607 99.8047 18.332C101.419 19.9076 102.227 21.776 102.227 23.9375V37.0234ZM90.2344 30.9688C90.2344 33 90.5859 34.3932 91.2891 35.1484C91.9661 35.8776 92.9167 36.2422 94.1406 36.2422C95.4427 36.2422 96.4323 35.8711 97.1094 35.1289C97.8516 34.3216 98.2227 32.9023 98.2227 30.8711C98.2227 28.9701 97.8255 27.6159 97.0312 26.8086C96.25 26.0664 95.2799 25.6953 94.1211 25.6953C92.9102 25.6953 91.9596 26.0794 91.2695 26.8477C90.5794 27.6159 90.2344 28.9896 90.2344 30.9688ZM128.594 35.8516H134.16C136.126 35.8516 137.689 35.2331 138.848 33.9961C139.694 33.0977 140.117 31.457 140.117 29.0742C140.117 27.1471 139.668 25.6497 138.77 24.582C137.767 23.3841 136.23 22.7852 134.16 22.7852H128.594V35.8516ZM128.594 20.6367H134.16C135.462 20.6367 136.51 20.2135 137.305 19.3672C138.008 18.612 138.359 17.388 138.359 15.6953C138.359 13.7422 137.936 12.3945 137.09 11.6523C136.335 10.9883 135.358 10.6562 134.16 10.6562H128.594V20.6367ZM124.688 38V9.48438L126.758 8.50781H134.16C136.361 8.50781 138.19 9.10677 139.648 10.3047C141.38 11.7109 142.246 13.5143 142.246 15.7148C142.246 17.9544 141.257 19.8164 139.277 21.3008C139.915 21.5742 140.547 21.9844 141.172 22.5312C143.073 24.263 144.023 26.4115 144.023 28.9766C144.023 31.5547 143.19 33.6706 141.523 35.3242C139.74 37.1081 137.285 38 134.16 38H124.688ZM151.445 38.7812V9.48438L155.156 7.72656H155.352V37.0234L151.641 38.7812H151.445ZM162.188 30.5781V23.9375C162.188 21.7891 162.995 19.9206 164.609 18.332C166.12 16.8607 168.014 16.125 170.293 16.125C172.546 16.125 174.44 16.8607 175.977 18.332C177.591 19.8945 178.398 21.763 178.398 23.9375V30.5781C178.398 32.7266 177.591 34.5951 175.977 36.1836C174.466 37.6549 172.572 38.3906 170.293 38.3906C168.04 38.3906 166.146 37.6549 164.609 36.1836C162.995 34.6211 162.188 32.7526 162.188 30.5781ZM166.094 31.9062C166.094 33.4036 166.497 34.5039 167.305 35.207C168.125 35.8971 169.121 36.2422 170.293 36.2422C171.465 36.2422 172.454 35.8971 173.262 35.207C174.082 34.5039 174.492 33.4036 174.492 31.9062V22.6094C174.492 21.112 174.082 20.0182 173.262 19.3281C172.454 18.625 171.465 18.2734 170.293 18.2734C169.121 18.2734 168.125 18.625 167.305 19.3281C166.497 20.0182 166.094 21.112 166.094 22.6094V31.9062ZM188.164 31.9062C188.164 33.4036 188.568 34.5039 189.375 35.207C190.195 35.8971 191.191 36.2422 192.363 36.2422C193.535 36.2422 194.525 35.8971 195.332 35.207C196.152 34.5039 196.562 33.4036 196.562 31.9062V22.6094C196.562 21.112 196.152 20.0182 195.332 19.3281C194.525 18.625 193.535 18.2734 192.363 18.2734C191.191 18.2734 190.195 18.625 189.375 19.3281C188.568 20.0182 188.164 21.112 188.164 22.6094V31.9062ZM184.258 30.5781V23.9375C184.258 21.7891 185.065 19.9206 186.68 18.332C188.19 16.8607 190.085 16.125 192.363 16.125C194.642 16.125 196.536 16.8607 198.047 18.332C199.661 19.9076 200.469 21.776 200.469 23.9375V38.5859C200.469 40.7344 199.661 42.6029 198.047 44.1914C196.536 45.6628 194.642 46.3984 192.363 46.3984H186.348V46.2031L187.285 44.25H192.363C193.535 44.25 194.531 43.8984 195.352 43.1953C196.159 42.5182 196.562 41.4245 196.562 39.9141V36.7305C195.573 37.8372 194.173 38.3906 192.363 38.3906C190.111 38.3906 188.216 37.6549 186.68 36.1836C185.065 34.6211 184.258 32.7526 184.258 30.5781Z" fill="black"/>
<rect x="4" y="44" width="176" height="2.5" fill="#F53131"/>
</svg>
