<svg width="16" height="16" viewBox="0 0 16 16" fill="none" xmlns="http://www.w3.org/2000/svg">
<path d="M10.3607 14.7128C9.51831 14.7128 8.73759 14.4949 8.23619 14.1224C8.07105 14.1317 7.92539 14.1317 7.76251 14.1224C7.26111 14.4949 6.48063 14.7128 5.63745 14.7128C4.04928 14.7128 2.89581 14.001 2.89581 13.0214C2.89581 12.5455 3.17588 12.1178 3.67803 11.8122C3.67004 11.7998 3.6623 11.7885 3.65504 11.7768C3.36124 11.9919 3.0352 12.0528 2.73541 11.9519C1.84077 11.6484 1.79205 10.0854 2.20003 8.77006C2.41889 8.06703 2.82186 7.51566 3.15862 7.14965C3.15437 7.10243 3.15288 7.05571 3.15288 7.00925C3.15288 6.62901 3.25206 6.25776 3.44694 5.9055C3.44694 5.90101 3.44694 5.89501 3.44694 5.88977C3.44694 3.35248 5.4908 1.28738 8.00286 1.28738C10.5147 1.28738 12.5578 3.35248 12.5578 5.88977C12.5578 5.89102 12.5578 5.89301 12.5578 5.89452C12.7574 6.24928 12.8581 6.62377 12.8581 7.00926C12.8581 7.06097 12.8566 7.1102 12.8526 7.16067C13.1846 7.52468 13.5833 8.07179 13.8002 8.76958C14.2086 10.0854 14.1599 11.6484 13.2643 11.9519C12.965 12.0536 12.641 11.9919 12.3479 11.7788C12.3396 11.7905 12.3324 11.8025 12.3242 11.8135C12.8241 12.1206 13.1034 12.546 13.1034 13.0214C13.1034 14.001 11.9499 14.7128 10.3607 14.7128ZM8.34387 13.4439C8.42457 13.4439 8.50252 13.4726 8.56347 13.5251C8.93247 13.8436 9.62101 14.0412 10.3607 14.0412C11.503 14.0412 12.4318 13.5843 12.4318 13.0214C12.4318 12.7239 12.163 12.4406 11.6943 12.2449C11.5974 12.205 11.5247 12.121 11.499 12.0201C11.472 11.9184 11.4947 11.8102 11.5589 11.7283C11.7171 11.5269 11.857 11.3118 11.9757 11.0882C12.0289 10.9898 12.1266 10.9228 12.237 10.9119C12.3512 10.8994 12.4586 10.9438 12.5303 11.0305C12.6614 11.1867 12.8713 11.3768 13.0497 11.3163C13.3922 11.1992 13.5184 10.1261 13.1584 8.96891C12.9567 8.31835 12.5588 7.8172 12.26 7.51164C12.185 7.43544 12.1508 7.32803 12.1688 7.22184C12.181 7.14764 12.1865 7.07869 12.1865 7.00923C12.1865 6.71743 12.1013 6.43012 11.9327 6.15532C11.897 6.0971 11.879 6.02815 11.884 5.9587C11.8855 5.93497 11.8862 5.91348 11.8862 5.88974C11.8862 3.7217 10.1444 1.9589 8.00284 1.9589C5.86105 1.9589 4.11847 3.7217 4.11847 5.88974C4.11847 5.91546 4.12021 5.9417 4.12171 5.96644C4.12646 6.03613 4.11022 6.10484 4.07349 6.16456C3.90836 6.43663 3.82441 6.72068 3.82441 7.00923C3.82441 7.07544 3.83015 7.14364 3.84165 7.2146C3.85789 7.31953 3.82366 7.42645 3.74946 7.50165C3.44766 7.80994 3.04469 8.31435 2.84132 8.96891C2.48231 10.1261 2.60847 11.1991 2.95124 11.3151C3.13237 11.3788 3.34098 11.1852 3.47289 11.0273C3.54435 10.9421 3.65277 10.8966 3.76594 10.9091C3.87636 10.9203 3.9753 10.9873 4.02727 11.0855C4.14544 11.3093 4.28509 11.5244 4.44399 11.7263C4.50844 11.8095 4.53043 11.9179 4.50346 12.0188C4.47722 12.1205 4.40477 12.2037 4.30808 12.2432C3.8374 12.4385 3.56734 12.7224 3.56734 13.0214C3.56734 13.5843 4.49596 14.0412 5.63744 14.0412C6.37818 14.0412 7.06673 13.8436 7.43622 13.5251C7.50318 13.4668 7.58837 13.4366 7.68106 13.4446C7.90665 13.4621 8.08754 13.4621 8.31938 13.4446C8.32737 13.4439 8.33562 13.4439 8.34387 13.4439Z" fill="black"/>
</svg>
