<svg width="16" height="16" viewBox="0 0 16 16" fill="none" xmlns="http://www.w3.org/2000/svg">
<path d="M15.0541 5.64942C14.8685 5.64942 14.7191 5.49851 14.7191 5.31289C14.7191 3.64652 13.3627 2.29169 11.6964 2.29169C11.5107 2.29169 11.3613 2.14079 11.3613 1.95517C11.3613 1.76979 11.5107 1.62015 11.6964 1.62015C13.7335 1.62015 15.3906 3.27603 15.3906 5.31289C15.3906 5.49853 15.2397 5.64942 15.0541 5.64942ZM12.7044 5.64942C12.5188 5.64942 12.3679 5.49851 12.3679 5.31289C12.3679 4.94239 12.0669 4.64135 11.6964 4.64135C11.5107 4.64135 11.3613 4.49194 11.3613 4.30633C11.3613 4.12071 11.5107 3.9698 11.6964 3.9698C12.4374 3.9698 13.0394 4.57264 13.0394 5.31289C13.0394 5.49853 12.89 5.64942 12.7044 5.64942ZM12.7064 10.2126C12.7064 12.184 10.1329 14.3802 6.43942 14.3802C3.57362 14.3802 0.609375 12.9097 0.609375 10.4499C0.609375 9.215 1.33589 7.78421 2.65624 6.42188C3.92188 5.11627 5.36342 4.30431 6.41844 4.30431C6.83966 4.30431 7.19093 4.43822 7.43625 4.6913C7.68159 4.94512 7.91767 5.41655 7.74853 6.25398C8.37536 6.0089 8.96371 5.87948 9.46337 5.87948C10.2693 5.87948 10.6636 6.21027 10.8504 6.48681C11.122 6.88629 11.143 7.41419 10.9141 8.05625C12.0381 8.42753 12.7064 9.23075 12.7064 10.2126ZM10.6805 8.6866C10.5396 8.64313 10.3443 8.58218 10.2478 8.38081C10.1494 8.17695 10.2293 7.96834 10.2556 7.89888C10.379 7.58135 10.4844 7.14264 10.295 6.86408C10.1199 6.60501 9.74617 6.55104 9.46336 6.55104C8.99318 6.55104 8.41282 6.69419 7.78449 6.96627C7.782 6.96702 7.77925 6.96751 7.77725 6.96951C7.69281 7.00424 7.5669 7.04496 7.44148 7.04496C7.23162 7.04496 7.11944 6.93553 7.07048 6.86934C7.00803 6.78389 6.94781 6.63324 7.01927 6.4049C7.1909 5.83379 7.16742 5.37934 6.95357 5.15824C6.83614 5.03682 6.65652 4.97587 6.41843 4.97587C5.56526 4.97587 4.2479 5.7446 3.13891 6.88883C1.94073 8.12498 1.28092 9.39013 1.28092 10.4499C1.28092 12.0521 3.21036 13.7087 6.43942 13.7087C9.90533 13.7087 12.0349 11.6731 12.0349 10.2126C12.0349 9.22624 11.0878 8.81628 10.6805 8.6866Z" fill="black"/>
</svg>
