<svg width="14" height="14" viewBox="0 0 14 14" fill="none" xmlns="http://www.w3.org/2000/svg">
<path d="M8.02848 1.94552L10.9871 2.26448C11.1817 2.2854 11.3633 2.37224 11.5017 2.51059C11.6401 2.64893 11.727 2.83045 11.748 3.02501L12.0666 5.98367C12.0803 6.111 12.0653 6.23978 12.0228 6.36055C11.9802 6.48133 11.9111 6.59103 11.8206 6.68161L6.84525 11.6566C6.76563 11.7363 6.6711 11.7994 6.56707 11.8425C6.46303 11.8856 6.35152 11.9078 6.23891 11.9078C6.1263 11.9078 6.0148 11.8856 5.91076 11.8425C5.80673 11.7994 5.7122 11.7363 5.63258 11.6566L2.35553 8.37929C2.19479 8.2185 2.10449 8.00045 2.10449 7.7731C2.10449 7.54574 2.19479 7.32769 2.35553 7.1669L7.33055 2.19189C7.42113 2.10126 7.53087 2.03209 7.6517 1.98945C7.77253 1.94682 7.90138 1.93181 8.02877 1.94552H8.02848ZM7.93703 2.79808L2.96144 7.7731L6.23934 11.0504L11.2141 6.07541L10.8954 3.11704L7.93674 2.79808H7.93703ZM8.73928 3.85613C8.90818 3.85613 9.07542 3.8894 9.23146 3.95403C9.3875 4.01867 9.52928 4.1134 9.64871 4.23283C9.76814 4.35226 9.86287 4.49404 9.92751 4.65008C9.99214 4.80612 10.0254 4.97336 10.0254 5.14226C10.0254 5.31115 9.99214 5.4784 9.92751 5.63444C9.86287 5.79048 9.76814 5.93226 9.64871 6.05168C9.52928 6.17111 9.3875 6.26585 9.23146 6.33048C9.07542 6.39511 8.90818 6.42838 8.73928 6.42838C8.39818 6.42838 8.07105 6.29288 7.82985 6.05168C7.58866 5.81049 7.45316 5.48336 7.45316 5.14226C7.45316 4.80116 7.58866 4.47403 7.82985 4.23283C8.07105 3.99164 8.39818 3.85613 8.73928 3.85613ZM8.73928 4.71355C8.62558 4.71355 8.51654 4.75872 8.43614 4.83911C8.35574 4.91951 8.31057 5.02856 8.31057 5.14226C8.31057 5.25596 8.35574 5.365 8.43614 5.4454C8.51654 5.5258 8.62558 5.57097 8.73928 5.57097C8.85298 5.57097 8.96203 5.5258 9.04243 5.4454C9.12282 5.365 9.16799 5.25596 9.16799 5.14226C9.16799 5.02856 9.12282 4.91951 9.04243 4.83911C8.96203 4.75872 8.85298 4.71355 8.73928 4.71355Z" fill="black" fill-opacity="0.6"/>
</svg>
