<svg width="20" height="20" viewBox="0 0 20 20" fill="none" xmlns="http://www.w3.org/2000/svg">
<mask id="path-2-inside-1" fill="white">
<path d="M6.73325 16.6667C7.96549 16.7079 9.1935 16.5017 10.3447 16.0602C11.4959 15.6188 12.5469 14.9511 13.4357 14.0965C14.3244 13.2419 15.0328 12.2179 15.5191 11.0849C16.0053 9.95189 16.2595 8.73291 16.2666 7.5C16.8313 6.80117 17.2506 5.99652 17.4999 5.13333C17.5185 5.06513 17.517 4.99301 17.4956 4.92564C17.4742 4.85828 17.4337 4.79854 17.3791 4.75363C17.3245 4.70873 17.2581 4.68056 17.1879 4.67252C17.1176 4.66448 17.0466 4.67692 16.9832 4.70833C16.6878 4.85054 16.3552 4.89648 16.0323 4.83967C15.7094 4.78286 15.4124 4.62616 15.1832 4.39166C14.8907 4.07131 14.5368 3.81294 14.1426 3.63185C13.7484 3.45077 13.3218 3.35065 12.8882 3.33744C12.4546 3.32423 12.0227 3.39819 11.6182 3.55494C11.2137 3.71169 10.8447 3.94805 10.5332 4.25C10.1067 4.66304 9.79435 5.1794 9.62642 5.74889C9.4585 6.31838 9.44075 6.92162 9.57491 7.5C6.78325 7.66666 4.86658 6.34166 3.33325 4.525C3.28718 4.47283 3.22692 4.43521 3.15983 4.41672C3.09274 4.39823 3.02171 4.39968 2.95543 4.42089C2.88915 4.4421 2.83048 4.48216 2.78658 4.53616C2.74269 4.59016 2.71547 4.65578 2.70825 4.725C2.41614 6.34535 2.62685 8.01629 3.31209 9.51339C3.99733 11.0105 5.12428 12.2621 6.54158 13.1C5.59128 14.1898 4.25675 14.8705 2.81658 15C2.73942 15.0128 2.6682 15.0494 2.61287 15.1047C2.55755 15.16 2.52089 15.2311 2.50803 15.3083C2.49517 15.3854 2.50676 15.4647 2.54117 15.5349C2.57557 15.6051 2.63108 15.6629 2.69991 15.7C3.95285 16.3261 5.3326 16.6568 6.73325 16.6667"/>
</mask>
<path d="M16.2666 7.5L15.6443 6.99718L15.4682 7.21515L15.4666 7.49538L16.2666 7.5ZM17.4999 5.13333L18.2686 5.35533L18.2717 5.34392L17.4999 5.13333ZM16.9832 4.70833L17.3303 5.42921L17.3387 5.42501L16.9832 4.70833ZM15.1832 4.39166L14.5925 4.93112L14.6016 4.94112L14.6111 4.95079L15.1832 4.39166ZM10.5332 4.25L11.0898 4.82467L11.0901 4.82442L10.5332 4.25ZM9.57491 7.5L9.62259 8.29857L10.5683 8.24211L10.3542 7.31922L9.57491 7.5ZM3.33325 4.525L3.94459 4.009L3.93883 4.00217L3.93291 3.99547L3.33325 4.525ZM2.70825 4.725L3.49555 4.86693L3.50084 4.83763L3.50393 4.80801L2.70825 4.725ZM6.54158 13.1L7.14455 13.6258L7.77665 12.9008L6.94872 12.4113L6.54158 13.1ZM2.81658 15L2.74496 14.2032L2.71519 14.2059L2.6857 14.2108L2.81658 15ZM2.69991 15.7L2.32014 16.4041L2.33113 16.41L2.34229 16.4156L2.69991 15.7ZM6.70649 17.4662C8.0456 17.511 9.3801 17.2869 10.6311 16.8072L10.0583 15.3133C9.0069 15.7164 7.88538 15.9048 6.76 15.8671L6.70649 17.4662ZM10.6311 16.8072C11.8822 16.3275 13.0243 15.6018 13.9901 14.6732L12.8812 13.5198C12.0695 14.3003 11.1096 14.9101 10.0583 15.3133L10.6311 16.8072ZM13.9901 14.6732C14.956 13.7445 15.7258 12.6317 16.2542 11.4004L14.7839 10.7694C14.3398 11.8042 13.6928 12.7394 12.8812 13.5198L13.9901 14.6732ZM16.2542 11.4004C16.7826 10.1691 17.0588 8.84444 17.0666 7.50461L15.4666 7.49538C15.4601 8.62138 15.228 9.73465 14.7839 10.7694L16.2542 11.4004ZM16.8888 8.00281C17.5205 7.22106 17.9896 6.32093 18.2685 5.35531L16.7313 4.91135C16.5116 5.67211 16.142 6.38128 15.6443 6.99718L16.8888 8.00281ZM18.2717 5.34392C18.3309 5.12693 18.3261 4.89744 18.2579 4.6831L16.7332 5.16818C16.7079 5.08857 16.7061 5.00333 16.7281 4.92273L18.2717 5.34392ZM18.2579 4.6831C18.1897 4.46875 18.061 4.27869 17.8873 4.1358L16.8709 5.37147C16.8064 5.31839 16.7586 5.2478 16.7332 5.16818L18.2579 4.6831ZM17.8873 4.1358C17.7136 3.99291 17.5023 3.90328 17.2788 3.87771L17.0969 5.46733C17.0139 5.45783 16.9354 5.42454 16.8709 5.37147L17.8873 4.1358ZM17.2788 3.87771C17.0554 3.85213 16.8293 3.8917 16.6278 3.99165L17.3387 5.42501C17.2639 5.46213 17.1799 5.47683 17.0969 5.46733L17.2788 3.87771ZM16.6363 3.9875C16.4917 4.05709 16.3289 4.07957 16.1709 4.05177L15.8937 5.62757C16.3815 5.71339 16.8839 5.64399 17.3302 5.42916L16.6363 3.9875ZM16.1709 4.05177C16.0129 4.02397 15.8676 3.94729 15.7554 3.83253L14.6111 4.95079C14.9573 5.30504 15.4059 5.54175 15.8937 5.62757L16.1709 4.05177ZM15.774 3.8522C15.4093 3.45279 14.9681 3.13066 14.4765 2.90488L13.8087 4.35882C14.1056 4.49522 14.3722 4.68983 14.5925 4.93112L15.774 3.8522ZM14.4765 2.90488C13.985 2.6791 13.4532 2.55428 12.9126 2.53781L12.8638 4.13707C13.1905 4.14702 13.5117 4.22243 13.8087 4.35882L14.4765 2.90488ZM12.9126 2.53781C12.3719 2.52134 11.8335 2.61356 11.3291 2.80899L11.9073 4.3009C12.2119 4.18283 12.5372 4.12712 12.8638 4.13707L12.9126 2.53781ZM11.3291 2.80899C10.8248 3.00443 10.3648 3.29911 9.97643 3.67557L11.0901 4.82442C11.3247 4.59699 11.6026 4.41896 11.9073 4.3009L11.3291 2.80899ZM9.9767 3.67532C9.45105 4.18438 9.06604 4.82076 8.85909 5.52263L10.3938 5.97516C10.5226 5.53804 10.7624 5.14171 11.0898 4.82467L9.9767 3.67532ZM8.85909 5.52263C8.65213 6.22449 8.63026 6.96795 8.7956 7.68077L10.3542 7.31922C10.2512 6.87529 10.2649 6.41227 10.3938 5.97516L8.85909 5.52263ZM9.52724 6.70142C7.0751 6.84781 5.38154 5.71146 3.94459 4.009L2.7219 5.04099C4.35162 6.97186 6.49139 8.48551 9.62259 8.29857L9.52724 6.70142ZM3.93291 3.99547C3.78401 3.82684 3.58922 3.70522 3.37234 3.64546L2.94732 5.18798C2.86463 5.16519 2.79036 5.11882 2.73358 5.05452L3.93291 3.99547ZM3.37234 3.64546C3.15546 3.5857 2.92587 3.59039 2.71161 3.65896L3.19925 5.18283C3.11756 5.20898 3.03002 5.21076 2.94732 5.18798L3.37234 3.64546ZM2.71161 3.65896C2.49735 3.72752 2.30769 3.85699 2.1658 4.03156L3.40737 5.04076C3.35327 5.10732 3.28095 5.15669 3.19925 5.18283L2.71161 3.65896ZM2.1658 4.03156C2.0239 4.20612 1.93591 4.41823 1.91256 4.64198L3.50393 4.80801C3.49503 4.89332 3.46147 4.9742 3.40737 5.04076L2.1658 4.03156ZM1.92094 4.58306C1.59986 6.36411 1.83147 8.20076 2.58467 9.84634L4.03952 9.18044C3.42223 7.83181 3.23242 6.32658 3.49555 4.86693L1.92094 4.58306ZM2.58467 9.84634C3.33787 11.4919 4.57658 12.8676 6.13443 13.7886L6.94872 12.4113C5.67198 11.6565 4.6568 10.5291 4.03952 9.18044L2.58467 9.84634ZM5.93861 12.5742C5.12386 13.5086 3.9797 14.0922 2.74496 14.2032L2.8882 15.7968C4.5338 15.6489 6.05869 14.8711 7.14455 13.6258L5.93861 12.5742ZM2.6857 14.2108C2.44394 14.2509 2.22077 14.3655 2.04742 14.5388L3.17833 15.6706C3.11563 15.7332 3.03491 15.7747 2.94746 15.7892L2.6857 14.2108ZM2.04742 14.5388C1.87406 14.712 1.7592 14.935 1.71892 15.1768L3.29715 15.4398C3.28258 15.5272 3.24103 15.6079 3.17833 15.6706L2.04742 14.5388ZM1.71892 15.1768C1.67863 15.4185 1.71493 15.6668 1.82273 15.8868L3.2596 15.183C3.29859 15.2626 3.31172 15.3524 3.29715 15.4398L1.71892 15.1768ZM1.82273 15.8868C1.93054 16.1069 2.10445 16.2878 2.32014 16.4041L3.07968 14.9959C3.1577 15.038 3.2206 15.1034 3.2596 15.183L1.82273 15.8868ZM2.34229 16.4156C3.70457 17.0964 5.20475 17.4559 6.72762 17.4666L6.73887 15.8667C5.46046 15.8577 4.20112 15.5559 3.05753 14.9844L2.34229 16.4156Z" fill="black" mask="url(#path-2-inside-1)"/>
</svg>
