<svg width="16" height="16" viewBox="0 0 16 16" fill="none" xmlns="http://www.w3.org/2000/svg">
<path d="M8.00011 13.5413C7.08923 13.5413 6.20133 13.3762 5.35791 13.0496L2.09861 14.5167C2.05464 14.5369 2.00818 14.5466 1.96096 14.5466C1.88426 14.5466 1.80806 14.5199 1.74635 14.4687C1.64817 14.386 1.60471 14.2548 1.63493 14.1309L2.43438 10.8716C1.6809 9.86956 1.28467 8.70609 1.28467 7.49741C1.28467 4.16466 4.29763 1.45351 8.00011 1.45351C11.7029 1.45351 14.7156 4.16468 14.7156 7.49741C14.7156 10.8297 11.7029 13.5413 8.00011 13.5413ZM8.00011 2.12505C4.66737 2.12505 1.95621 4.53516 1.95621 7.49741C1.95621 8.60715 2.33871 9.67469 3.06196 10.5863C3.12617 10.667 3.1499 10.7739 3.12492 10.8749L2.45136 13.622L5.21175 12.3781C5.29494 12.3406 5.39212 12.3394 5.47658 12.3741C6.27928 12.7026 7.12871 12.8698 8.00011 12.8698C11.3331 12.8698 14.044 10.4599 14.044 7.49741C14.044 4.53518 11.3331 2.12505 8.00011 2.12505ZM5.65046 6.82537C5.46484 6.82537 5.31394 6.67446 5.31394 6.48885C5.31394 6.30323 5.46484 6.15382 5.65046 6.15382C5.83483 6.15382 5.98548 6.30323 5.98548 6.48885C5.98548 6.67446 5.83483 6.82537 5.65046 6.82537ZM10.3513 6.82537C10.1657 6.82537 10.0147 6.67446 10.0147 6.48885C10.0147 6.30323 10.1657 6.15382 10.3513 6.15382C10.5356 6.15382 10.6863 6.30323 10.6863 6.48885C10.6863 6.67446 10.5356 6.82537 10.3513 6.82537ZM5.65046 7.16039C5.27921 7.16039 4.97892 6.8601 4.97892 6.48885C4.97892 6.11759 5.27921 5.8173 5.65046 5.8173C6.02046 5.8173 6.322 6.11759 6.322 6.48885C6.322 6.8601 6.02045 7.16039 5.65046 7.16039ZM10.3513 7.16039C9.98002 7.16039 9.67973 6.8601 9.67973 6.48885C9.67973 6.11759 9.98002 5.8173 10.3513 5.8173C10.7213 5.8173 11.0228 6.11759 11.0228 6.48885C11.0228 6.8601 10.7213 7.16039 10.3513 7.16039Z" fill="black"/>
</svg>
